<svg version="1.0" xmlns="http://www.w3.org/2000/svg" viewBox="0 0 200.000000 200.000000" preserveAspectRatio="xMidYMid meet"><g transform="translate(0.000000,200.000000) scale(0.100000,-0.100000)" fill="#000000" stroke="none"> <path d="M0 1000 l0 -1000 1000 0 1000 0 0 1000 0 1000 -1000 0 -1000 0 0 -1000z m900 205 l205 -205 -205 -205 -205 -205 -213 0 -214 0 196 201 c108 110 196 205 196 209 0 4 -88 99 -196 209 l-196 201 214 0 213 0 205 -205z m636 0 l203 -205 -203 -205 -203 -205 -212 0 c-116 0 -211 3 -211 7 0 4 89 97 197 205 l198 198 -198 198 c-108 108 -197 201 -197 205 0 4 95 7 212 7 l211 0 203 -205z"/> </g></svg>